<svg width="449" height="277" viewBox="0 0 449 277" fill="none" xmlns="http://www.w3.org/2000/svg">
<g clip-path="url(#clip0_203_398)">
<path d="M222.674 13.3299C229.937 13.3299 235.819 19.194 235.819 26.4349C235.819 33.6757 229.937 39.5398 222.674 39.5398C215.41 39.5398 209.528 33.6757 209.528 26.4349C209.528 19.194 215.421 13.3299 222.674 13.3299ZM222.674 0.989746C208.608 0.989746 197.15 12.412 197.15 26.4349C197.15 40.4679 208.597 51.88 222.674 51.88C236.75 51.88 248.197 40.4679 248.197 26.4349C248.197 12.412 236.75 0.989746 222.674 0.989746Z" fill="#3C32A3"/>
<path d="M159.409 13.3299C166.673 13.3299 172.555 19.194 172.555 26.4349C172.555 33.6757 166.673 39.5398 159.409 39.5398C152.146 39.5398 146.264 33.6757 146.264 26.4349C146.264 19.194 152.157 13.3299 159.409 13.3299ZM159.409 0.989746C145.344 0.989746 133.886 12.412 133.886 26.4349C133.886 40.4679 145.333 51.88 159.409 51.88C173.486 51.88 184.933 40.4679 184.933 26.4349C184.933 12.412 173.486 0.989746 159.409 0.989746Z" fill="#B45EF6"/>
<path d="M289.587 13.3299C296.85 13.3299 302.732 19.194 302.732 26.4349C302.732 33.6757 296.85 39.5398 289.587 39.5398C282.324 39.5398 276.441 33.6757 276.441 26.4349C276.441 19.194 282.334 13.3299 289.587 13.3299ZM289.587 0.989746C275.521 0.989746 264.063 12.412 264.063 26.4349C264.063 40.4679 275.511 51.88 289.587 51.88C303.663 51.88 315.11 40.4679 315.11 26.4349C315.11 12.412 303.663 0.989746 289.587 0.989746Z" fill="#42A1D8"/>
<path d="M205.641 91.2766L180.425 66.1374C174.809 60.5385 167.352 57.4688 159.423 57.4688C151.485 57.4688 144.028 60.5487 138.422 66.1374L113.185 91.2766C101.605 102.821 101.605 121.617 113.185 133.162L128.427 148.347L138.412 158.301C144.028 163.9 151.485 166.969 159.413 166.969C159.822 166.969 160.211 166.959 160.61 166.939C168.098 166.643 175.095 163.604 180.425 158.291L205.641 133.151C206.613 132.193 207.483 131.183 208.291 130.122C217.129 118.537 216.25 101.873 205.641 91.2766ZM188.977 116.548L163.761 141.687C163.464 141.983 163.127 142.248 162.779 142.473C162.656 142.554 162.533 142.626 162.411 142.687C162.349 142.738 162.267 142.768 162.206 142.799C162.093 142.86 161.981 142.911 161.868 142.962C161.776 143.013 161.684 143.044 161.572 143.085C161.531 143.105 161.49 143.115 161.449 143.136C161.449 143.136 161.408 143.146 161.357 143.166C161.326 143.176 161.296 143.187 161.265 143.197C161.173 143.238 161.07 143.258 160.968 143.278C160.927 143.289 160.886 143.299 160.835 143.309C160.774 143.329 160.692 143.34 160.62 143.36C160.446 143.411 160.283 143.431 160.109 143.442C160.017 143.452 159.925 143.462 159.822 143.472C159.679 143.482 159.546 143.493 159.403 143.493C159.393 143.493 159.393 143.493 159.383 143.493C158.564 143.493 157.736 143.319 156.968 142.983C156.273 142.687 155.618 142.259 155.055 141.698L140.989 127.654L129.849 116.548C127.456 114.152 127.456 110.276 129.849 107.89L155.076 82.7405C156.273 81.5473 157.848 80.9456 159.413 80.9456C160.989 80.9456 162.554 81.5473 163.751 82.7405L188.967 107.89C191.125 110.032 191.34 113.377 189.611 115.763C189.438 116.049 189.212 116.304 188.977 116.548Z" fill="#B45EF6"/>
<path d="M208.281 130.133C207.483 131.193 206.603 132.203 205.631 133.161L180.415 158.301C175.085 163.614 168.088 166.653 160.6 166.949C160.201 166.969 159.812 166.979 159.403 166.979C151.465 166.979 144.007 163.9 138.401 158.311L128.417 148.357C131.742 142.044 135.967 135.069 140.979 127.654L155.065 141.687C155.628 142.248 156.283 142.687 156.978 142.972C157.746 143.309 158.574 143.482 159.393 143.482C159.403 143.482 159.403 143.482 159.413 143.482C159.556 143.482 159.689 143.472 159.833 143.462C159.925 143.452 160.017 143.442 160.119 143.431C160.293 143.401 160.467 143.37 160.63 143.35C160.702 143.329 160.784 143.319 160.845 143.299C160.896 143.289 160.937 143.278 160.978 143.268C161.07 143.248 161.173 143.217 161.275 143.187C161.316 143.176 161.336 143.166 161.367 143.156C161.428 143.136 161.459 143.125 161.459 143.125C161.5 143.105 161.541 143.095 161.582 143.074C161.684 143.034 161.776 143.003 161.878 142.952C161.991 142.901 162.104 142.86 162.216 142.789C162.277 142.758 162.359 142.728 162.421 142.677C162.543 142.615 162.666 142.544 162.789 142.462C163.137 142.238 163.464 141.973 163.771 141.677L188.987 116.538C189.233 116.293 189.448 116.028 189.632 115.763L194.665 116.538L208.281 130.133Z" fill="url(#paint0_linear_203_398)"/>
<path d="M270.447 91.2765L245.221 66.1374C239.604 60.5384 232.147 57.4585 224.219 57.4585C216.281 57.4585 208.823 60.5384 203.217 66.1374L191.821 77.4984L205.642 91.2765C206.614 92.2352 207.483 93.2448 208.291 94.3055L219.882 82.7608C221.078 81.5676 222.654 80.9659 224.219 80.9659C225.784 80.9659 227.37 81.5676 228.567 82.7608L253.783 107.9C256.187 110.297 256.187 114.162 253.783 116.558L228.567 141.698C227.37 142.891 225.784 143.493 224.219 143.493C222.654 143.493 221.078 142.891 219.882 141.698L208.301 130.153C208.291 130.153 208.291 130.143 208.291 130.143L194.655 116.558C193.417 115.314 192.814 113.682 192.875 112.061C191.791 110.909 190.676 109.756 189.601 108.634C189.417 108.379 189.203 108.124 188.977 107.9L185.857 104.8C185.745 104.687 185.632 104.565 185.53 104.463C179.832 98.6806 175.362 94.3157 175.362 94.3157H175.351C171.433 99.4455 169.306 105.677 169.306 112.234C169.306 118.792 171.433 125.023 175.362 130.153C176.16 131.214 177.05 132.223 178.011 133.182L196.865 151.978L203.227 158.331C208.844 163.93 216.301 167.01 224.229 167.01C232.167 167.01 239.625 163.93 245.231 158.331L270.457 133.182C282.027 121.617 282.027 102.821 270.447 91.2765Z" fill="#6232A3"/>
<path d="M335.804 91.2766L310.588 66.1476C307.581 63.1493 304.051 60.875 300.195 59.4167C296.85 58.1316 293.269 57.4688 289.586 57.4688C281.648 57.4688 274.191 60.5589 268.585 66.1476L256.913 77.7738L270.457 91.2766C271.521 92.3372 272.493 93.459 273.352 94.6319L285.249 82.7711C286.446 81.5677 288.021 80.9762 289.586 80.9762C291.152 80.9762 292.727 81.5677 293.924 82.7711L319.14 107.91C321.534 110.307 321.534 114.172 319.14 116.569L293.924 141.708C292.717 142.901 291.141 143.503 289.586 143.503C288.011 143.503 286.446 142.901 285.249 141.708L274.559 131.061C274.559 131.05 274.549 131.05 274.549 131.04L273.331 129.837L260.023 116.569C258.928 115.467 258.324 114.06 258.243 112.642C256.984 111.317 255.706 110.011 254.468 108.747C254.284 108.451 254.048 108.175 253.782 107.91L247.43 101.587L246.243 100.394L245.128 99.2823C243.021 97.1611 241.445 95.6007 240.801 94.9786L240.473 94.6421H240.463C232.74 105.065 232.75 119.424 240.473 129.847C241.343 131.01 242.305 132.132 243.369 133.182L256.913 146.685L262.58 152.335L268.585 158.321C274.201 163.92 281.658 167 289.586 167C297.525 167 304.982 163.91 310.588 158.321L335.804 133.172C347.395 121.607 347.395 102.831 335.804 91.2766Z" fill="#42A1D8"/>
<path d="M289.587 80.9659C288.011 80.9659 286.446 81.5574 285.249 82.7608L273.352 94.6216C272.483 93.459 271.521 92.327 270.457 91.2663L256.913 77.7636L268.585 66.1374C274.201 60.5384 281.659 57.4585 289.587 57.4585C293.27 57.4585 296.86 58.1214 300.195 59.4064C311.714 70.6655 289.587 80.9659 289.587 80.9659Z" fill="url(#paint1_linear_203_398)"/>
</g>
<path d="M7.13746 194.36H21.5675V247.01H7.13746V194.36ZM52.8241 220.49C47.6761 220.49 45.7261 224.624 45.7261 229.538V247.01H31.6861V227.822C31.6861 216.356 38.3941 206.84 52.8241 206.84C67.2541 206.84 73.9621 216.356 73.9621 227.822V247.01H59.9221V229.538C59.9221 224.624 57.9721 220.49 52.8241 220.49ZM100.061 247.01H86.0211V219.71H79.3911V208.01H86.0211V207.776C86.0211 197.402 91.9491 189.134 104.663 189.134C107.315 189.134 110.201 189.602 112.151 190.46V203.954C110.279 202.94 107.939 202.394 105.989 202.394C102.323 202.394 100.061 204.5 100.061 208.01H125.801V247.01H111.761V219.71H100.061V247.01ZM153.646 248.102C141.478 248.258 132.196 238.742 132.196 227.432C132.196 216.122 141.478 206.684 153.646 206.84C161.446 206.918 168.622 210.428 172.21 218.462L160.588 224.702C159.34 222.05 156.844 220.022 153.646 220.022C149.2 220.022 146.236 223.298 146.236 227.432C146.236 231.566 149.2 234.92 153.646 234.92C156.844 234.92 159.34 232.892 160.588 230.24L172.21 236.48C168.622 244.514 161.446 248.024 153.646 248.102ZM197.598 248.18C185.43 248.18 176.148 238.82 176.148 227.432C176.148 216.122 185.43 206.762 197.598 206.762C209.766 206.762 219.048 216.122 219.048 227.432C219.048 238.82 209.766 248.18 197.598 248.18ZM197.598 234.998C202.044 234.998 205.008 231.566 205.008 227.51C205.008 223.376 202.044 219.944 197.598 219.944C193.152 219.944 190.188 223.376 190.188 227.51C190.188 231.566 193.152 234.998 197.598 234.998ZM246.453 220.49C241.305 220.49 239.355 224.624 239.355 229.538V247.01H225.315V227.822C225.315 216.356 232.023 206.84 246.453 206.84C260.883 206.84 267.591 216.356 267.591 227.822V247.01H253.551V229.538C253.551 224.624 251.601 220.49 246.453 220.49ZM296.498 220.49C291.35 220.49 289.4 224.624 289.4 229.538V247.01H275.36V227.822C275.36 216.356 282.068 206.84 296.498 206.84C310.928 206.84 317.636 216.356 317.636 227.822V247.01H303.596V229.538C303.596 224.624 301.646 220.49 296.498 220.49ZM345.685 248.102C333.205 248.102 323.845 239.834 323.845 227.042C323.845 215.81 332.269 206.45 344.593 206.45C357.385 206.45 364.483 215.966 364.483 226.418V229.928H337.339C338.275 233.828 341.239 236.168 345.529 236.168C349.273 236.168 352.237 234.14 353.641 231.098L364.405 236.48C361.051 243.734 354.421 248.102 345.685 248.102ZM337.963 222.674H350.521C349.897 220.49 347.713 218.462 344.437 218.462C341.083 218.462 338.821 220.412 337.963 222.674ZM391.379 248.102C379.211 248.258 369.929 238.742 369.929 227.432C369.929 216.122 379.211 206.684 391.379 206.84C399.179 206.918 406.355 210.428 409.943 218.462L398.321 224.702C397.073 222.05 394.577 220.022 391.379 220.022C386.933 220.022 383.969 223.298 383.969 227.432C383.969 231.566 386.933 234.92 391.379 234.92C394.577 234.92 397.073 232.892 398.321 230.24L409.943 236.48C406.355 244.514 399.179 248.024 391.379 248.102ZM437.592 248.258C424.878 248.258 418.95 240.77 418.95 230.396V219.71H412.32V208.01H418.95V198.26H432.99V208.01H445.782V219.71H432.99V229.928C432.99 233.672 435.252 235.778 438.918 235.778C440.868 235.778 443.91 235.232 445.782 234.218V246.62C443.832 247.712 440.244 248.258 437.592 248.258Z" fill="#02102D"/>
<defs>
<linearGradient id="paint0_linear_203_398" x1="179.492" y1="122.675" x2="158.99" y2="149.115" gradientUnits="userSpaceOnUse">
<stop stop-color="#9837F3"/>
<stop offset="0.9944" stop-color="#B45EF6"/>
</linearGradient>
<linearGradient id="paint1_linear_203_398" x1="278.268" y1="75.8837" x2="267.993" y2="86.6819" gradientUnits="userSpaceOnUse">
<stop stop-color="#42A1D8"/>
<stop offset="0.9944" stop-color="#177FBC"/>
</linearGradient>
<clipPath id="clip0_203_398">
<rect width="240" height="166" fill="white" transform="translate(104.5 0.989746)"/>
</clipPath>
</defs>
</svg>